HIERARCHY
ROOT Hips
{
	OFFSET -3.958830 18.904000 13.208200
	CHANNELS 6 Xposition Yposition Zposition Zrotation Yrotation Xrotation 
	JOINT LHipJoint
	{
		OFFSET 0.000000 0.000000 0.000000
		CHANNELS 3 Zrotation Yrotation Xrotation
		JOINT LeftUpLeg
		{
			OFFSET 1.800000 -1.400000 0.085000
			CHANNELS 3 Zrotation Yrotation Xrotation
			JOINT LeftLeg
			{
				OFFSET 2.215000 -6.000000 0.000000
				CHANNELS 3 Zrotation Yrotation Xrotation
				JOINT LeftFoot
				{
					OFFSET 2.500000 -6.900000 0.000000
					CHANNELS 3 Zrotation Yrotation Xrotation
					JOINT LeftToeBase
					{
						OFFSET 0.200000 -0.500000 1.950000
						CHANNELS 3 Zrotation Yrotation Xrotation
						End Site
						{
							OFFSET 0.000000 0.000000 0.000000
						}
					}
				}
			}
		}
	}
	JOINT RHipJoint
	{
		OFFSET 0.000000 0.000000 0.000000
		CHANNELS 3 Zrotation Yrotation Xrotation
		JOINT RightUpLeg
		{
			OFFSET -1.800000 -1.400000 0.085000
			CHANNELS 3 Zrotation Yrotation Xrotation
			JOINT RightLeg
			{
				OFFSET -2.215000 -6.000000 0.000000
				CHANNELS 3 Zrotation Yrotation Xrotation
				JOINT RightFoot
				{
					OFFSET -2.500000 -6.900000 0.000000
					CHANNELS 3 Zrotation Yrotation Xrotation
					JOINT RightToeBase
					{
						OFFSET -0.200000 -0.500000 1.950000
						CHANNELS 3 Zrotation Yrotation Xrotation
						End Site
						{
							OFFSET 0.000000 0.000000 0.000000
						}
					}
				}
			}
		}
	}
	JOINT LowerBack
	{
		OFFSET 0.000000 0.000000 0.000000
		CHANNELS 3 Zrotation Yrotation Xrotation
		JOINT Spine
		{
			OFFSET -0.087000 1.940000 -0.288900
			CHANNELS 3 Zrotation Yrotation Xrotation
			JOINT Spine1
			{
				OFFSET 0.000000 1.950000 0.060000
				CHANNELS 3 Zrotation Yrotation Xrotation
				JOINT Neck
				{
					OFFSET 0.000000 0.000000 0.000000
					CHANNELS 3 Zrotation Yrotation Xrotation
					JOINT Neck1
					{
						OFFSET 0.000000 1.600000 0.340000
						CHANNELS 3 Zrotation Yrotation Xrotation
						JOINT Head
						{
							OFFSET 0.000000 1.667000 -0.240000
							CHANNELS 3 Zrotation Yrotation Xrotation
							End Site
							{
								OFFSET 0.000000 0.000000 0.000000
							}
						}
					}
				}
				JOINT LeftShoulder
				{
					OFFSET 0.000000 0.000000 0.000000
					CHANNELS 3 Zrotation Yrotation Xrotation
					JOINT LeftArm
					{
						OFFSET 2.700000 1.550000 -0.730000
						CHANNELS 3 Zrotation Yrotation Xrotation
						JOINT LeftForeArm
						{
							OFFSET 5.450000 0.000000 0.000000
							CHANNELS 3 Zrotation Yrotation Xrotation
							JOINT LeftHand
							{
								OFFSET 3.450000 0.000000 0.000000
								CHANNELS 3 Zrotation Yrotation Xrotation
								JOINT LeftHandIndex1
								{
									OFFSET 0.750000 0.000000 0.000000
									CHANNELS 3 Zrotation Yrotation Xrotation
									End Site
									{
										OFFSET 0.000000 0.000000 0.000000
									}
								}
							}
						}
					}
				}
				JOINT RightShoulder
				{
					OFFSET 0.000000 0.000000 0.000000
					CHANNELS 3 Zrotation Yrotation Xrotation
					JOINT RightArm
					{
						OFFSET -2.700000 1.550000 -0.730000
						CHANNELS 3 Zrotation Yrotation Xrotation
						JOINT RightForeArm
						{
							OFFSET -5.450000 0.000000 0.000000
							CHANNELS 3 Zrotation Yrotation Xrotation
							JOINT RightHand
							{
								OFFSET -3.450000 0.000000 0.000000
								CHANNELS 3 Zrotation Yrotation Xrotation
								JOINT RightHandIndex1
								{
									OFFSET -0.750000 0.000000 0.000000
									CHANNELS 3 Zrotation Yrotation Xrotation
									End Site
									{
										OFFSET 0.000000 0.000000 0.000000
									}
								}
							}
						}
					}
				}
			}
		}
	}
}
MOTION
Frames: 10
Frame Time: 0.016667
-1.253000 15.650130 -3.917250 4.086693 -14.388815 -9.677402 -15.756274 13.398925 3.158249 30.307962 2.119427 -22.153639 2.268481 15.764393 58.640139 1.321358 11.065299 0.506362 0.734360 0.533310 0.505810 18.178653 -7.021701 4.869297 -45.951250 5.551105 -42.369810 15.963055 -24.896036 57.774866 -2.070544 -10.875950 0.356397 -0.057230 -0.399500 0.501410 -2.765192 -6.512247 -9.112931 51.299674 -21.527716 42.005592 -10.757154 -3.854220 2.713857 15.463212 -8.493835 -15.124716 -18.153645 8.978605 69.663453 -2.574170 -8.266200 -22.266530 -34.812585 -7.209522 3.116078 -42.725545 17.880802 -12.658470 12.776797 -23.886554 -3.342303 -2.851128 3.287741 0.792900 -0.560470 0.720870 0.205950 3.525389 20.810288 10.718307 34.431511 9.968420 -18.519065 -78.229390 38.820544 -37.408327 2.331748 -1.276140 0.410740 -0.128430 -0.277640 0.082720 
-1.252000 15.667840 -3.864050 4.559551 -14.414494 -11.284017 -15.680628 13.728699 2.818771 28.835454 1.800597 -19.765128 4.174913 14.198866 58.306916 1.363821 10.758838 0.626684 0.694110 0.504440 0.412970 18.177635 -7.311636 4.843307 -45.822695 5.079209 -41.257970 14.787764 -24.590000 58.645519 -2.035183 -10.960957 0.325103 -0.085280 -0.336230 0.524450 -2.808505 -6.551566 -8.920033 51.085610 -21.254712 39.865009 -9.533009 -5.165185 3.247028 14.440200 -9.652333 -15.896909 -21.438820 10.428433 67.797211 -0.947150 -9.221470 -17.449230 -34.127190 -8.297471 4.521849 -43.492561 19.881843 -12.920078 16.367768 -23.433478 -3.856212 -2.887589 3.386934 0.703370 -0.513710 0.668360 0.230610 5.061608 22.635429 10.836346 31.418748 9.556032 -18.700795 -74.369511 40.825997 -35.942104 2.338753 -1.273228 0.447680 -0.181690 -0.260580 0.140240 
-1.256870 15.697340 -3.792410 4.657214 -15.004362 -11.665043 -15.650076 13.997981 2.713960 28.205423 1.869746 -18.054321 4.292792 13.925793 57.190063 1.436313 10.590874 0.687363 0.644880 0.417840 0.402080 18.145556 -7.495369 4.745067 -44.348530 4.903675 -41.087395 12.124005 -23.412417 59.694314 -1.967230 -10.899349 0.321095 -0.171540 -0.341370 0.624310 -2.767400 -6.696030 -8.903984 51.130452 -19.447384 37.703598 -8.739290 -3.764982 1.511801 14.000909 -8.408131 -15.956428 -17.086790 6.818558 67.452468 -4.720910 -8.709990 -12.178850 -33.079702 -6.798222 4.320640 -42.034636 21.128266 -13.122672 17.929420 -25.723391 -4.364027 -2.959489 3.514962 0.619530 -0.447420 0.650550 0.215270 4.579339 21.291805 11.265853 32.766383 7.687418 -18.166990 -69.737197 42.439331 -33.387276 2.356048 -1.331962 0.520310 -0.330520 -0.253030 0.151440 
-1.259640 15.746030 -3.686860 4.188931 -13.469274 -12.127881 -15.626671 14.263014 2.760112 28.173057 1.256256 -16.975002 4.189483 13.493842 56.075555 1.426054 10.467880 0.770993 0.482230 0.229860 0.332710 18.087799 -7.786765 4.434141 -42.829713 3.680780 -38.397348 10.457532 -22.618766 59.281039 -1.830825 -10.708761 0.373900 -0.264180 -0.270220 0.603510 -2.694746 -6.929544 -8.865137 51.221342 -18.688444 33.831558 -8.519111 -3.463944 -0.248280 13.606441 -7.295415 -16.813710 -13.382811 4.089182 67.003072 -8.568470 -7.903880 -5.952090 -32.019313 -6.479284 4.867098 -40.854302 23.681982 -13.073910 15.876268 -26.996566 -4.007229 -3.044050 3.452175 0.555440 -0.365140 0.569780 0.169100 3.798249 21.306845 12.242145 35.644254 5.652011 -18.352861 -64.864579 43.289337 -30.771596 2.358660 -1.309928 0.465670 -0.326800 -0.179800 0.142000 
-1.252810 15.806750 -3.557230 3.749451 -12.202352 -12.290755 -15.562821 14.429402 2.848788 28.441776 0.937195 -15.701500 3.005960 13.704466 54.247610 1.543236 10.228611 0.856267 0.420200 0.179530 0.296630 18.074462 -8.188946 4.033281 -41.040950 2.643895 -35.693161 7.988288 -21.034091 58.437436 -1.689975 -10.333025 0.485814 -0.352090 -0.288160 0.634100 -2.754161 -6.858765 -8.781951 52.136907 -17.784632 29.678944 -9.733983 -2.494726 -2.865817 12.274195 -5.752586 -17.505031 -9.872893 1.370240 65.077016 -10.754010 -6.600650 -0.127550 -28.833330 -5.843092 5.552512 -40.138041 25.733477 -12.914944 13.057590 -27.179889 -3.150355 -3.064509 3.536182 0.438830 -0.321370 0.551020 0.161420 2.550567 20.193894 13.219062 40.658629 2.151306 -18.780731 -62.617616 45.984168 -30.450466 2.375607 -1.333604 0.547040 -0.454030 -0.202210 0.179790 
-1.262440 15.873840 -3.381030 3.752706 -10.710863 -10.291225 -15.586818 14.675258 2.992059 27.919138 0.656924 -16.187776 1.834187 13.884773 51.935251 1.598028 9.909523 0.954232 0.386310 0.093680 0.328080 18.001739 -8.314241 3.726092 -39.607765 1.095985 -34.443076 5.572413 -19.687217 56.969350 -1.557689 -9.907518 0.572212 -0.449750 -0.344420 0.693980 -2.632935 -7.334636 -8.810289 52.161592 -14.853000 24.585883 -10.840381 0.977911 -9.822554 11.010659 -3.724553 -17.656581 -5.414423 -1.646094 63.795616 -14.116170 -4.090270 7.215000 -23.547561 -0.904829 3.835372 -37.624222 24.364927 -10.274941 10.838457 -23.361969 -1.624430 -3.168266 3.599594 0.362970 -0.297790 0.547210 0.155880 -1.024456 15.576297 14.439879 49.220204 -3.773720 -18.631083 -58.258238 50.035342 -27.953921 2.378200 -1.420722 0.616750 -0.632620 -0.249280 0.181550 
-1.272210 15.966580 -3.185250 4.099097 -8.235821 -6.280360 -15.492490 14.425299 3.098208 26.595086 0.098741 -18.361914 -0.160602 14.230641 49.128786 1.573867 9.658792 1.127062 0.123280 -0.180550 0.137810 18.096979 -8.547890 3.620077 -38.978023 -1.095345 -34.741477 3.892266 -19.242580 54.730708 -1.367274 -9.607512 0.751081 -0.613950 -0.119870 0.728440 -2.904134 -6.776852 -8.844761 51.250768 -10.762672 17.440807 -11.563072 3.645568 -17.305664 8.286738 -0.371237 -15.750380 0.771544 -5.197347 55.993404 -16.179710 0.225980 14.351170 -16.564716 6.030628 2.067805 -35.309104 23.546246 -9.018993 3.870962 -26.103329 -0.008654 -3.419237 3.529618 0.246390 -0.082980 0.416590 0.168110 -3.648781 5.939921 13.721270 53.563233 -10.040101 -17.500093 -50.822474 55.795085 -23.022780 2.251774 -1.391432 0.545960 -0.625850 -0.146270 0.213330 
-1.264150 16.069930 -3.020800 4.562245 -5.469491 -4.052120 -15.336941 14.130474 3.036060 25.499257 -0.295858 -18.676272 -1.800221 14.123089 45.726287 1.485775 9.315638 1.338615 -0.110890 -0.453510 0.072400 18.237174 -9.081156 3.377917 -38.436333 -2.459181 -33.276018 2.424645 -18.365472 52.384853 -1.155305 -9.292623 0.855213 -0.726810 0.065200 0.747270 -3.307609 -5.621791 -8.679937 48.843111 -7.278657 10.712138 -10.951730 3.758853 -19.088842 7.457811 1.948823 -13.949366 3.648076 -6.056042 43.583696 -19.526320 7.249840 16.402380 -10.508240 10.549875 0.718137 -35.488646 20.671335 -8.378209 -0.936778 -24.134261 0.932330 -3.712879 3.471669 0.119940 0.126180 0.257250 0.114950 -8.511803 -1.817795 12.759029 56.670513 -12.217632 -16.258269 -36.539855 56.348313 -14.227924 2.331448 -1.702485 0.431220 -0.638240 -0.059740 0.177110 
-1.223460 16.164910 -2.908140 4.765115 -3.503115 -3.713761 -15.023831 13.446195 2.707106 24.709329 -0.186813 -16.503285 -3.636048 14.066154 42.382717 1.609439 8.968358 1.618848 -0.298510 -0.558750 -0.215800 18.547713 -10.097262 3.126500 -37.483027 -2.925192 -31.737325 0.274740 -16.834329 50.981678 -0.951842 -9.205056 0.983879 -0.774750 0.420960 0.836180 -4.144278 -2.795809 -8.208007 45.961129 -4.052719 4.232630 -10.484775 1.495792 -15.594028 5.675691 2.708158 -12.026957 4.820167 -5.293780 30.046081 -15.869590 8.933060 21.070650 -6.372575 11.000985 0.972148 -40.483458 16.898709 -9.479372 4.364586 -20.605774 0.089298 -4.085878 3.568820 -0.200730 0.446140 0.045840 0.246870 -9.497344 -6.347138 11.023773 59.408849 -11.935929 -15.716630 -28.418506 49.638007 -9.284693 2.453481 -2.034226 0.428390 -0.681090 -0.035280 0.337620 
-1.210950 16.238470 -2.865810 5.372829 -3.522079 -4.823883 -14.842587 12.950009 2.464389 24.795899 0.342419 -12.924857 -6.182312 14.784558 39.216347 1.415362 9.203490 1.729006 -0.610190 -0.971110 -0.500560 18.736429 -10.858351 2.861142 -35.826044 -2.314674 -31.243185 -3.476717 -14.236963 51.344671 -0.678376 -9.146601 1.043249 -0.810440 0.878790 0.781520 -4.643375 -0.692803 -7.732049 42.233616 -2.791996 0.942784 -10.379573 -0.724625 -11.524084 3.965292 1.345930 -10.426971 3.260992 -3.089102 20.589003 -11.540490 7.736150 23.803220 -3.768420 11.522220 1.731860 -44.473625 16.981468 -11.049207 6.307105 -23.632200 -0.595495 -4.443500 3.533789 -0.303120 0.739940 -0.347450 0.219140 -8.246484 -8.869979 8.853068 62.461627 -9.706393 -15.897273 -27.082754 44.148654 -8.452063 2.371968 -2.045161 0.122560 -0.511310 0.227800 0.311600 
